<svg width="32" height="32" viewBox="0 0 32 32" fill="none" xmlns="http://www.w3.org/2000/svg">
<g id="Component 1">
<path id="Vector_zakl" d="M8 5C7.73478 5 7.48043 5.10536 7.29289 5.29289C7.10536 5.48043 7 5.73478 7 6V26.382L15.553 22.106C15.6918 22.0366 15.8448 22.0005 16 22.0005C16.1552 22.0005 16.3082 22.0366 16.447 22.106L25 26.382V6C25 5.73478 24.8946 5.48043 24.7071 5.29289C24.5196 5.10536 24.2652 5 24 5H8ZM5 6C5 5.20435 5.31607 4.44129 5.87868 3.87868C6.44129 3.31607 7.20435 3 8 3H24C24.7956 3 25.5587 3.31607 26.1213 3.87868C26.6839 4.44129 27 5.20435 27 6V28C26.9999 28.1704 26.9563 28.3379 26.8733 28.4867C26.7902 28.6355 26.6706 28.7606 26.5256 28.8502C26.3806 28.9398 26.2152 28.9908 26.045 28.9985C25.8748 29.0061 25.7054 28.9702 25.553 28.894L16 24.118L6.447 28.894C6.29458 28.9702 6.12522 29.0061 5.95501 28.9985C5.78479 28.9908 5.61935 28.9398 5.47439 28.8502C5.32944 28.7606 5.20977 28.6355 5.12674 28.4867C5.04372 28.3379 5.00009 28.1704 5 28V6Z" fill="black"/>
</g>
</svg>
