<svg width="12" height="16" viewBox="0 0 12 16" fill="none" xmlns="http://www.w3.org/2000/svg">
<g id="Component 12">
<path id="Vector" d="M11 1V15L6 11.889L1 15V1H11Z" stroke="#DC2C2C" stroke-width="1.5" stroke-linecap="round" stroke-linejoin="round"/>
<path id="Vector 1" d="M9.02161 11.1306C9.02934 11.262 9.12381 11.3258 9.15936 11.4414C9.18499 11.5247 9.27078 11.5959 9.28109 11.6784C9.29811 11.8145 9.57558 11.8668 9.62708 11.9956C9.65513 12.0657 9.66932 12.2081 9.72799 12.2551C9.77388 12.2918 9.67382 12.2067 9.66232 12.1974C9.60093 12.1478 9.55559 12.0099 9.51335 11.9395C9.44595 11.8272 9.41647 11.7035 9.33876 11.6063C9.28939 11.5446 9.22314 11.4044 9.16577 11.3901" stroke="#DC2C2C" stroke-width="3" stroke-linecap="round"/>
<path id="Vector 2" d="M8.0701 10.6693C7.97184 10.6693 7.88076 10.6405 7.78178 10.6405C7.66005 10.6405 7.63379 10.7038 7.53671 10.7254C7.41363 10.7527 7.30146 10.763 7.18271 10.6853C7.11954 10.644 7.03975 10.6167 6.9905 10.554C6.88155 10.4153 6.85536 10.2603 6.77266 10.1087C6.72552 10.0223 6.66807 9.93372 6.65893 9.83318C6.65114 9.74745 6.66144 9.67206 6.6285 9.58971C6.563 9.42596 6.66268 9.33257 6.8063 9.25654C7.26708 9.01259 7.79819 9.16743 8.23669 9.36546C8.32869 9.40701 8.48928 9.52732 8.56665 9.4007C8.6066 9.33533 8.67934 9.26879 8.73324 9.21489C8.75539 9.19274 8.8359 9.05792 8.84857 9.05792C8.91327 9.05792 8.97168 9.19477 8.99273 9.24212C9.01905 9.30134 9.05594 9.3095 9.08243 9.35585C9.12648 9.43294 9.07922 9.30557 9.07922 9.29818C9.07922 9.20604 9.02223 9.10003 8.99273 9.01307C8.9151 8.78427 8.89924 8.54757 8.85497 8.31149C8.8266 8.16016 8.83449 8.09231 8.92385 8.25222C9.07773 8.52757 9.22958 8.83495 9.32109 9.1364C9.35809 9.25829 9.4075 9.37321 9.44763 9.4936C9.46938 9.55883 9.46225 9.64422 9.48928 9.70504C9.50776 9.74661 9.53812 9.83931 9.5053 9.88444C9.45619 9.95196 9.40608 9.78754 9.39638 9.7595C9.3002 9.48165 9.25036 9.21359 9.21057 8.92337C9.1172 8.2423 9.07811 7.52238 9.13529 6.83625C9.16278 6.50638 9.28105 6.19241 9.28105 5.85916C9.28105 5.69789 9.32443 5.53771 9.30347 5.37702C9.28039 5.20008 9.22673 5.02566 9.22338 4.84523C9.21876 4.59556 9.22338 4.34532 9.22338 4.0956C9.22338 3.76813 9.16394 3.34542 9.31629 3.05765C9.39454 2.90984 8.91706 2.80136 8.80532 2.80136C8.7047 2.80136 8.6819 2.95626 8.61631 2.99998C8.50387 3.07494 8.41177 3.06768 8.27032 3.04163C8.00292 2.99237 7.7326 2.89698 7.46143 2.88465C7.33621 2.87896 7.2222 2.8301 7.09622 2.82699C6.95795 2.82357 6.82399 2.81776 6.68616 2.80456C6.00291 2.73915 5.31674 2.65541 4.64549 2.50984C4.34608 2.4449 4.06381 2.42334 3.75971 2.42334C3.6313 2.42334 3.51 2.481 3.38329 2.481C3.27351 2.481 3.22986 2.45364 3.19428 2.55148C3.14271 2.69331 3.0601 2.79502 3.05332 2.97115C3.04698 3.13597 2.99566 3.29495 2.99566 3.46129C2.99566 3.677 2.99566 3.89271 2.99566 4.10841C2.99566 4.36579 2.91782 4.62082 2.90916 4.88047C2.89218 5.39 2.90139 5.88387 2.9444 6.39576C2.97313 6.73767 3.05332 7.08505 3.05332 7.4273C3.05332 7.74179 2.98264 8.04691 2.96843 8.35954C2.95081 8.74717 2.84926 9.12418 2.82107 9.50481C2.80709 9.69341 2.77507 9.88058 2.70734 10.0574C2.6447 10.221 2.64485 10.3991 2.57599 10.554C2.54658 10.6202 2.5622 10.6873 2.52794 10.7558C2.49787 10.8159 2.47676 10.8862 2.45426 10.9512C2.42891 11.0244 2.41607 11.1238 2.37577 11.1883C2.32737 11.2657 2.36197 11.3744 2.31811 11.4446C2.28288 11.5009 2.32168 11.5302 2.25884 11.5695C2.189 11.6132 2.29937 11.6869 2.33252 11.7009C2.47865 11.7624 2.72652 11.5303 2.80665 11.4446C3.08264 11.1493 3.39491 10.893 3.67161 10.5972C3.85687 10.3992 4.08624 10.0683 4.39722 10.1359C4.54573 10.1682 4.60447 10.1693 4.7448 10.1087C4.90095 10.0413 5.0207 9.91608 5.18049 9.8492C5.30177 9.79843 5.23781 9.80164 5.17408 9.86201C5.11265 9.92021 5.03742 9.94814 4.96265 9.98375C4.81521 10.054 4.69128 10.1801 4.5654 10.2817C4.41517 10.4029 4.30274 10.4947 4.12011 10.5556C4.04977 10.579 3.96302 10.7099 3.96634 10.7078C4.21216 10.5513 4.40106 10.2984 4.62147 10.1103C4.89024 9.88085 5.06903 9.6798 5.1869 9.34303C5.41007 8.70539 5.59282 8.06523 5.87246 7.44653C5.99392 7.1778 6.11413 6.9061 6.20403 6.62481C6.28639 6.36709 6.32874 6.09935 6.41226 5.84154C6.50002 5.57061 6.63139 5.32318 6.72781 5.06147C6.78274 4.91237 6.56809 4.92945 6.47793 4.93173C6.29008 4.93648 6.14023 5.02318 5.97497 5.10472C5.68411 5.24824 5.39484 5.4239 5.25097 5.72942C5.11112 6.02637 5.17116 6.29628 5.34067 6.56234C5.45543 6.74247 5.58033 6.82083 5.76674 6.66806C6.46842 6.093 6.57169 5.05693 6.21844 4.26859C6.13476 4.08184 6.01128 3.85264 5.76994 3.92901C5.40069 4.04587 5.1013 4.46489 4.91459 4.77956C4.77041 5.02256 3.98108 6.76852 4.93862 6.31727C5.49007 6.05739 5.72396 5.06345 5.17088 4.67224C4.97027 4.53035 4.75278 4.82477 4.6519 4.95576C4.4187 5.25856 4.24332 5.64123 4.26267 6.03215C4.27914 6.36485 4.57981 6.91501 4.96585 6.92114C5.09619 6.92321 5.25889 6.6053 5.02351 6.90512C4.8023 7.18691 4.5316 7.42949 4.28029 7.68359C3.99078 7.97632 3.7264 8.28774 3.46979 8.60942C3.32586 8.78983 3.13973 8.98138 3.08216 9.21169C3.06226 9.29127 3.04926 9.37544 3.01808 9.45196C2.96707 9.57718 2.85472 9.66727 2.80985 9.80595C2.77326 9.91906 2.77588 10.0363 2.74738 10.1503C2.71622 10.275 2.6422 10.384 2.59201 10.5011C2.54313 10.6152 2.52083 10.7497 2.44785 10.8519C2.4103 10.9045 2.37584 10.9302 2.35495 10.9929C2.32473 11.0835 2.30369 11.179 2.30369 11.2748C2.30369 11.3625 2.2637 11.4078 2.24923 11.491C2.23504 11.5726 2.24832 11.626 2.21719 11.6961C2.15889 11.8272 2.15588 11.9733 2.08745 12.0965C2.07383 12.121 2.04567 12.2013 2.0442 12.2262C2.04275 12.2508 2.04506 12.2905 2.00576 12.2839C1.98782 12.2809 2.03455 12.2615 2.0474 12.2487C2.08912 12.207 2.12415 12.1579 2.15953 12.1109C2.47791 11.6883 2.68985 11.2077 2.96042 10.7558C3.20485 10.3476 3.4775 9.96667 3.71646 9.55767C3.78757 9.43596 3.98822 9.06367 3.91829 9.18606C3.86799 9.27408 3.7947 9.33137 3.72607 9.40711C3.5974 9.54909 3.4467 9.67069 3.34485 9.83478C3.2484 9.99017 3.17537 10.1573 3.09657 10.3217C3.01461 10.4928 2.91983 10.5655 2.80665 10.7013C2.52729 11.0366 2.35303 11.394 2.15953 11.7809C2.09172 11.9166 2.1323 12.0645 2.10026 12.2086C2.07565 12.3194 2.01285 12.3883 1.96411 12.4857C1.93261 12.5487 1.7424 12.8076 1.84878 12.6235C1.96381 12.4244 2.08024 12.2309 2.20438 12.0372C2.29069 11.9026 2.38812 11.776 2.47668 11.6432C2.6016 11.4558 2.67033 11.231 2.7666 11.0281C2.94464 10.653 3.16855 10.2922 3.32402 9.90686C3.42386 9.65943 3.52174 9.45453 3.6588 9.2261C3.81162 8.9714 3.92249 8.70426 4.06245 8.44283C4.1479 8.28321 4.19443 8.11214 4.27068 7.94948C4.33096 7.82088 4.44363 7.7327 4.51735 7.61311C4.66683 7.37063 4.7586 7.08878 4.90498 6.84105C4.95055 6.76393 5.02246 6.68508 5.04274 6.60399" stroke="#DC2C2C" stroke-width="3" stroke-linecap="round"/>
<path id="Vector 3" d="M7.2052 7.09412C7.30049 7.2966 7.51736 7.43217 7.7466 7.28953C7.9855 7.14089 8.01766 6.89673 8.08618 6.65202C8.10625 6.58034 8.19937 6.36638 8.24315 6.34448" stroke="#DC2C2C" stroke-width="3" stroke-linecap="round"/>
<path id="Vector 4" d="M7.2052 2.30794C7.30713 2.30794 7.37644 2.17699 7.45027 2.12053C7.58908 2.01438 7.79199 1.96202 7.95323 1.89147C8.0581 1.8456 8.14988 1.90191 8.24956 1.90429C8.41231 1.90816 8.55873 1.95653 8.72689 1.96195C8.88971 1.9672 9.02596 2.08813 9.18981 2.10451C9.28095 2.11362 9.37924 2.08941 9.46852 2.07568C9.54249 2.0643 9.67899 2.06325 9.72 2.0036C9.73708 1.97875 9.88671 1.99078 9.85775 1.99078" stroke="#DC2C2C" stroke-width="2" stroke-linecap="round"/>
<path id="Vector 5" d="M2.47669 2.42333C2.4643 2.31187 2.21182 2.20873 2.11469 2.19107C2.02825 2.17535 1.92539 2.04502 1.87122 1.99084" stroke="#DC2C2C" stroke-width="2" stroke-linecap="round"/>
</g>
</svg>
