<svg width="20" height="20" viewBox="0 0 20 20" fill="none" xmlns="http://www.w3.org/2000/svg">
<g id="Component 1">
<path id="Vector" fill-rule="evenodd" clip-rule="evenodd" d="M12.9233 10.5483C13.465 10.2142 14.1792 10.3733 14.5192 10.905C14.5998 11.031 14.6545 11.1718 14.6799 11.3192C14.7053 11.4666 14.7009 11.6176 14.6671 11.7633C14.6332 11.909 14.5705 12.0464 14.4827 12.1675C14.3949 12.2886 14.2838 12.3909 14.1558 12.4683C13.4485 12.9043 12.6734 13.2191 11.8625 13.4L14.0708 15.5642C14.1782 15.6683 14.2635 15.7929 14.3218 15.9306C14.3801 16.0683 14.4101 16.2163 14.4101 16.3658C14.4101 16.5154 14.3801 16.6634 14.3218 16.8011C14.2635 16.9388 14.1782 17.0634 14.0708 17.1675C13.8519 17.3806 13.5584 17.4999 13.2529 17.4999C12.9474 17.4999 12.6539 17.3806 12.435 17.1675L10.265 15.0408L8.09582 17.1675C7.87716 17.3813 7.5833 17.5007 7.27749 17.5C6.97196 17.5005 6.67844 17.3811 6.45999 17.1675C6.35284 17.0633 6.26767 16.9386 6.20952 16.801C6.15136 16.6633 6.1214 16.5153 6.1214 16.3658C6.1214 16.2164 6.15136 16.0684 6.20952 15.9307C6.26767 15.793 6.35284 15.6684 6.45999 15.5642L8.66665 13.4C7.85608 13.2188 7.08132 12.904 6.37415 12.4683C6.24627 12.3908 6.1352 12.2885 6.04748 12.1673C5.95976 12.0462 5.89716 11.9088 5.86338 11.7631C5.8296 11.6174 5.82531 11.4664 5.85078 11.319C5.87624 11.1717 5.93094 11.0309 6.01165 10.905C6.17824 10.649 6.4384 10.4683 6.73648 10.4017C7.03456 10.335 7.34689 10.3877 7.60665 10.5483C8.40715 11.0373 9.32698 11.2959 10.265 11.2959C11.203 11.2959 12.1228 11.0373 12.9233 10.5483ZM10.265 2.5C12.4433 2.5 14.215 4.23667 14.215 6.37167C14.215 8.50583 12.4433 10.2417 10.265 10.2417C8.08749 10.2417 6.31582 8.50583 6.31582 6.37167C6.31582 4.23667 8.08749 2.5 10.2658 2.5H10.265ZM10.265 4.76917C9.36415 4.76917 8.62999 5.4875 8.62999 6.37167C8.62999 7.255 9.36415 7.97417 10.265 7.97417C11.1667 7.97417 11.9008 7.255 11.9008 6.37167C11.9008 5.48833 11.1675 4.76917 10.265 4.76917Z" fill="black"/>
</g>
</svg>
