<svg width="20" height="20" viewBox="0 0 20 20" fill="none" xmlns="http://www.w3.org/2000/svg">
<g id="Component 1">
<path id="Vector" fill-rule="evenodd" clip-rule="evenodd" d="M3.53084 9.51836C7.55751 7.76419 10.2425 6.60753 11.5858 6.04836C15.4217 4.45336 16.2192 4.17586 16.7383 4.16669C16.8525 4.16503 17.1083 4.19336 17.2733 4.32753C17.4133 4.44086 17.4517 4.59419 17.47 4.70169C17.4883 4.80919 17.5117 5.05419 17.4933 5.24503C17.285 7.42919 16.3858 12.7292 15.9283 15.175C15.735 16.21 15.3533 16.5575 14.9842 16.5917C14.1825 16.665 13.5733 16.0617 12.7967 15.5525C11.5808 14.755 10.8942 14.2592 9.71334 13.4817C8.35001 12.5825 9.23417 12.0892 10.0117 11.2817C10.215 11.0709 13.7492 7.85669 13.8175 7.56503C13.8258 7.52836 13.8342 7.39169 13.7533 7.32003C13.6725 7.24836 13.5533 7.27336 13.4675 7.29253C13.345 7.32003 11.4033 8.60419 7.64084 11.1434C7.09001 11.5217 6.59084 11.7059 6.14334 11.6967C5.65001 11.6859 4.70167 11.4175 3.99584 11.1884C3.13084 10.9075 2.44417 10.7592 2.50417 10.2809C2.53501 10.0325 2.87751 9.77836 3.53084 9.51836Z" fill="black"/>
</g>
</svg>
