<svg width="29" height="28" viewBox="0 0 29 28" fill="none" xmlns="http://www.w3.org/2000/svg">
<path id="Vector_kor" d="M1.5 -0.00100708C1.23478 -0.00100708 0.98043 0.10435 0.792893 0.291886C0.605357 0.479423 0.5 0.733777 0.5 0.998993C0.5 1.26421 0.605357 1.51856 0.792893 1.7061C0.98043 1.89364 1.23478 1.99899 1.5 1.99899H3.5V20.999C3.50008 21.1347 3.52779 21.269 3.58145 21.3937C3.63511 21.5184 3.71358 21.6308 3.8121 21.7242C3.91062 21.8176 4.02711 21.8899 4.15449 21.9368C4.28187 21.9837 4.41746 22.0042 4.553 21.997L22.076 21.075C22.7172 21.0413 23.3306 20.8028 23.8262 20.3946C24.3217 19.9863 24.6732 19.4299 24.829 18.807L28.47 4.24099C28.5066 4.09368 28.5091 3.93997 28.4775 3.79151C28.4459 3.64306 28.3808 3.50376 28.2874 3.38416C28.1939 3.26457 28.0744 3.16783 27.938 3.10127C27.8016 3.03471 27.6518 3.00007 27.5 2.99999H5.5V0.999993C5.5 0.734776 5.39464 0.480422 5.20711 0.292886C5.01957 0.10535 4.76522 -7.03335e-06 4.5 -7.03335e-06H1.5V-0.00100708ZM5.5 11.999V4.99899H26.22L24.47 11.999H5.5ZM5.5 13.999H23.97L22.889 18.322C22.8371 18.5297 22.7198 18.7152 22.5546 18.8513C22.3893 18.9874 22.1848 19.0668 21.971 19.078L5.5 19.945V13.999ZM7.5 25.999C7.5 26.5294 7.28929 27.0381 6.91421 27.4132C6.53914 27.7883 6.03043 27.999 5.5 27.999C4.96957 27.999 4.46086 27.7883 4.08579 27.4132C3.71071 27.0381 3.5 26.5294 3.5 25.999C3.5 25.4686 3.71071 24.9599 4.08579 24.5848C4.46086 24.2097 4.96957 23.999 5.5 23.999C6.03043 23.999 6.53914 24.2097 6.91421 24.5848C7.28929 24.9599 7.5 25.4686 7.5 25.999ZM17.5 27.999C18.0304 27.999 18.5391 27.7883 18.9142 27.4132C19.2893 27.0381 19.5 26.5294 19.5 25.999C19.5 25.4686 19.2893 24.9599 18.9142 24.5848C18.5391 24.2097 18.0304 23.999 17.5 23.999C16.9696 23.999 16.4609 24.2097 16.0858 24.5848C15.7107 24.9599 15.5 25.4686 15.5 25.999C15.5 26.5294 15.7107 27.0381 16.0858 27.4132C16.4609 27.7883 16.9696 27.999 17.5 27.999Z" fill="black"/>
</svg>
