<svg width="12" height="16" viewBox="0 0 12 16" fill="none" xmlns="http://www.w3.org/2000/svg">
<g id="Component 13">
<path id="Vector" d="M11 1V15L6 11.889L1 15V1H11Z" stroke="#DC2C2C" stroke-width="1.5" stroke-linecap="round" stroke-linejoin="round"/>
<path id="Vector 6" d="M8.22772 5.53876C8.17902 5.72543 8.08844 5.90408 8.02475 6.08616C7.92624 6.36777 7.83022 6.64261 7.69262 6.90828C7.54216 7.19877 7.37324 7.48331 7.17598 7.74475C7.00896 7.96609 6.80062 8.13882 6.59373 8.32084C6.46155 8.43713 6.29513 8.55962 6.19599 8.70833C6.13985 8.79254 6.20848 8.78977 6.2657 8.75138C6.40796 8.65594 6.49987 8.51154 6.59373 8.3721C6.75686 8.12973 6.89746 7.87994 7.04579 7.62891C7.05391 7.61518 7.30456 7.2199 7.23133 7.2199C7.19123 7.2199 7.05492 7.3489 7.01811 7.37366C6.81381 7.51111 6.62136 7.62061 6.36821 7.63814C6.23688 7.64723 6.1014 7.64456 5.97253 7.61558C5.80419 7.57773 5.55832 7.49947 5.43026 7.37674C5.39852 7.34632 5.40129 7.25347 5.45076 7.30293C5.49347 7.34564 5.55477 7.42242 5.57479 7.48027C5.58841 7.51961 5.6076 7.57183 5.6076 7.50078C5.6076 7.3113 5.55326 7.13865 5.53584 6.95133C5.50462 6.61571 5.60199 6.30691 5.6855 5.9857C5.76939 5.66305 5.82185 5.33231 5.89872 5.00777C5.98825 4.62974 6.06351 4.22236 6.29133 3.89862C6.42181 3.7132 6.62866 3.52641 6.86538 3.51114C6.97908 3.5038 7.10306 3.49975 7.21391 3.52959C7.32931 3.56066 7.44012 3.60729 7.56038 3.61775C7.65483 3.62596 7.7947 3.6398 7.88841 3.61775C8.0323 3.58389 8.18453 3.48774 8.31382 3.41683C8.44535 3.3447 8.59032 3.35126 8.71566 3.26922C8.81485 3.2043 8.9264 3.14968 9.02216 3.08265C9.06639 3.05169 9.12469 3.01477 9.15952 2.97297C9.18363 2.94404 9.18438 2.8991 9.20975 2.86739C9.23433 2.83665 9.26969 2.83191 9.29791 2.80793C9.32242 2.7871 9.34856 2.77855 9.37581 2.76283C9.43283 2.72993 9.40861 2.85059 9.40861 2.88481C9.40861 3.15043 9.38203 3.40065 9.35223 3.66388C9.33131 3.84876 9.27279 4.01366 9.2323 4.1918C9.12882 4.64709 9.0676 5.1252 9.05701 5.59104C9.05213 5.8057 9.03958 6.0188 9.03958 6.23377C9.03958 6.41492 9.08844 6.56347 9.11339 6.73811" stroke="#DC2C2C" stroke-width="3" stroke-linecap="round"/>
<path id="Vector 7" d="M9.24264 7.21777C9.20533 7.88939 9.34089 8.56751 9.42306 9.23309C9.43618 9.33941 9.48263 9.51374 9.43126 9.61647C9.40744 9.66411 9.40636 9.79974 9.3718 9.82047C9.32885 9.84624 9.33988 10.1186 9.33593 10.17C9.32413 10.3233 9.3349 10.4818 9.3349 10.6354C9.3349 10.9418 9.38792 11.273 9.46611 11.5662C9.49376 11.6699 9.5197 11.7842 9.53684 11.887C9.54806 11.9543 9.53521 11.9955 9.56452 12.0541C9.59105 12.1072 9.61667 12.1606 9.63935 12.2161C9.65585 12.2564 9.69053 12.2664 9.70598 12.3012C9.71927 12.3311 9.75869 12.3405 9.78594 12.3483C9.79735 12.3516 9.82649 12.3869 9.81874 12.3801C9.7187 12.2926 9.66999 12.1436 9.60757 12.0254C9.49606 11.8143 9.33046 11.6427 9.16781 11.4719C9.00046 11.2962 8.77249 11.162 8.55994 11.0557" stroke="#DC2C2C" stroke-width="3" stroke-linecap="round"/>
<path id="Vector 8" d="M8.28313 11.5539C8.19854 11.5489 8.11614 11.4561 8.05248 11.4063C7.91958 11.3023 7.79948 11.1831 7.66397 11.0823C7.50128 10.9614 7.34263 10.8356 7.17911 10.7154C7.12513 10.6757 7.0378 10.6491 7.02945 10.5739C7.01011 10.3999 7.13165 10.232 7.22114 10.0962C7.33449 9.92422 7.41715 9.7314 7.49996 9.54369C7.54609 9.43914 7.66515 9.34992 7.75623 9.28434C7.7775 9.26902 7.94626 9.134 7.84746 9.19413C7.6575 9.30977 7.47305 9.43456 7.26522 9.51601C6.86935 9.67115 6.46584 9.79716 6.07509 9.96705C5.85439 10.063 5.63198 10.1503 5.41801 10.2612C5.28242 10.3316 5.15557 10.4138 5.01003 10.4632C4.81148 10.5306 4.57953 10.6087 4.3714 10.6303C4.16206 10.6519 3.96431 10.7077 3.8076 10.8435C3.69885 10.9378 3.56532 10.9854 3.4478 11.0649C3.32016 11.1513 3.18301 11.2363 3.05006 11.315C2.84155 11.4386 2.61325 11.534 2.39708 11.642C2.28078 11.7002 2.28302 11.9042 2.31508 12.0111C2.34065 12.0963 2.46116 12.1992 2.38273 12.2776C2.36583 12.2945 2.27366 12.3478 2.29457 12.2878C2.35142 12.1249 2.45208 11.9673 2.53444 11.8163C2.72671 11.4638 2.9357 11.1212 3.13104 10.7707C3.27815 10.5068 3.39737 10.284 3.39347 9.97935C3.39166 9.83822 3.31471 9.66003 3.24175 9.54266C3.18718 9.45488 3.05503 9.35669 3.04289 9.24744C3.03221 9.15138 3.03437 9.04872 3.02033 8.95221C3.01872 8.9411 3.0053 8.83381 2.98753 8.8497C2.93255 8.8989 2.89389 8.98757 2.85427 9.04857C2.83011 9.08577 2.5955 9.39104 2.70051 9.4463C2.81347 9.50576 2.9773 9.33699 3.05724 9.28434C3.13582 9.23259 3.21688 9.18582 3.29096 9.1275C3.36186 9.07168 3.43862 8.99328 3.5257 8.96349C3.61649 8.93243 3.79143 8.89986 3.88038 8.96144C3.93732 9.00086 3.89985 9.06898 3.88243 9.1193C3.8596 9.18526 3.83797 9.19529 3.8076 9.12443C3.76199 9.018 3.70443 8.9154 3.65076 8.8128C3.4913 8.50795 3.33482 8.20234 3.1782 7.89637C3.01968 7.58671 2.82459 7.29915 2.66668 6.98917C2.54668 6.75361 2.48952 6.40592 2.59185 6.15475C2.65475 6.00035 2.71377 5.84779 2.78456 5.69654C2.85127 5.55403 2.93448 5.37216 2.95063 5.21475C2.98843 4.84614 2.92258 4.47729 2.80302 4.12713C2.7515 3.97627 2.72388 3.82132 2.68411 3.66789C2.65826 3.5682 2.69231 3.47273 2.69231 3.37267C2.69231 3.18283 2.80205 3.06102 2.98036 3.00159C3.11469 2.95681 3.2888 2.95799 3.43037 2.95546C3.68971 2.95083 3.95028 2.99236 4.21148 2.99236C4.38693 2.99236 4.56533 3.00153 4.74043 2.98826C4.89822 2.97631 5.05244 2.93163 5.20787 2.90421C5.47666 2.85677 5.74584 2.80184 6.00949 2.72994C6.15364 2.69063 6.29697 2.58928 6.44822 2.58643C6.57847 2.58397 6.73292 2.61815 6.85826 2.64998C7.06046 2.70134 7.25368 2.66485 7.45691 2.66024C7.59267 2.65715 7.54347 2.66416 7.43846 2.68279C7.32511 2.7029 7.2397 2.78762 7.13913 2.83655C6.90384 2.95102 6.60522 2.97054 6.35186 3.01491C5.99705 3.07706 5.60001 3.20697 5.28372 3.37985C5.14795 3.45406 5.01414 3.53397 4.89419 3.63202C4.80413 3.70563 4.68664 3.76372 4.60512 3.84523C4.49043 3.95993 4.48416 4.15491 4.39395 4.28807C4.32901 4.38394 4.28762 4.43301 4.19098 4.49514C4.16302 4.51312 4.08613 4.54084 4.07617 4.56074" stroke="#DC2C2C" stroke-width="3" stroke-linecap="round"/>
<path id="Vector 9" d="M2.37858 2.42043C2.35298 2.41883 2.35567 2.41597 2.34167 2.40198" stroke="#DC2C2C" stroke-width="3" stroke-linecap="round"/>
</g>
</svg>
