<svg width="19" height="19" viewBox="0 0 19 19" fill="none" xmlns="http://www.w3.org/2000/svg">
<g id="Component 1">
<path id="Vector" d="M11.5303 5.21974C11.6709 5.36039 11.7499 5.55112 11.7499 5.74999C11.7499 5.94887 11.6709 6.1396 11.5303 6.28024L8.31052 9.49999L11.5303 12.7197C11.6669 12.8612 11.7425 13.0506 11.7408 13.2473C11.7391 13.4439 11.6602 13.6321 11.5211 13.7711C11.3821 13.9102 11.194 13.989 10.9973 13.9907C10.8007 13.9925 10.6112 13.9169 10.4698 13.7802L6.71977 10.0302C6.57917 9.8896 6.50018 9.69887 6.50018 9.49999C6.50018 9.30112 6.57917 9.11039 6.71977 8.96974L10.4698 5.21974C10.6104 5.07914 10.8011 5.00015 11 5.00015C11.1989 5.00015 11.3896 5.07914 11.5303 5.21974Z" fill="black"/>
</g>
</svg>
