<svg width="32" height="32" viewBox="0 0 32 32" fill="none" xmlns="http://www.w3.org/2000/svg">
<g id="Component 1">
<path id="Vector_zakaz" d="M17.392 2.70301C16.9643 2.47133 16.4855 2.35001 15.999 2.35001C15.5125 2.35001 15.0338 2.47133 14.606 2.70301L3.56001 8.68701C3.41344 8.76627 3.291 8.88366 3.20563 9.02676C3.12026 9.16987 3.07513 9.33337 3.07501 9.50001V21.309C3.07501 22.382 3.66301 23.369 4.60701 23.881L15.56 29.813C15.6952 29.8861 15.8464 29.9244 16 29.9244C16.1537 29.9244 16.3049 29.8861 16.44 29.813L27.393 23.881C27.8564 23.6301 28.2433 23.2586 28.513 22.8059C28.7827 22.3531 28.925 21.836 28.925 21.309V9.50001C28.925 9.33348 28.88 9.17004 28.7948 9.02694C28.7096 8.88385 28.5874 8.7664 28.441 8.68701L17.392 2.70301ZM15.487 4.32901C15.807 4.15601 16.192 4.15601 16.511 4.32901L26.041 9.49101L22.001 11.631L11.95 6.24701L15.488 4.33001L15.487 4.32901ZM5.95701 9.49101L10.002 7.30101L20.032 12.676L16 14.813L5.95801 9.49101H5.95701ZM4.92501 21.31V11.037L15.075 16.417V27.447L5.48801 22.254C5.31777 22.1618 5.17558 22.0253 5.07649 21.859C4.97739 21.6926 4.92506 21.5036 4.92501 21.31ZM16.925 27.448V16.418L27.075 11.038V21.31C27.075 21.704 26.859 22.067 26.512 22.255L16.925 27.448Z" fill="black"/>
</g>
</svg>
