<svg width="19" height="19" viewBox="0 0 19 19" fill="none" xmlns="http://www.w3.org/2000/svg">
<g id="Component 1">
<path id="Vector" d="M7.46975 5.21974C7.32915 5.36039 7.25016 5.55112 7.25016 5.74999C7.25016 5.94887 7.32915 6.1396 7.46975 6.28024L10.6895 9.49999L7.46975 12.7197C7.39812 12.7889 7.34098 12.8717 7.30167 12.9632C7.26237 13.0547 7.24168 13.1531 7.24081 13.2527C7.23995 13.3523 7.25892 13.451 7.29663 13.5432C7.33434 13.6354 7.39003 13.7191 7.46045 13.7895C7.53087 13.86 7.61461 13.9156 7.70678 13.9534C7.79896 13.9911 7.89772 14.01 7.9973 14.0092C8.09689 14.0083 8.1953 13.9876 8.2868 13.9483C8.37831 13.909 8.46106 13.8519 8.53025 13.7802L12.2803 10.0302C12.4209 9.8896 12.4998 9.69886 12.4998 9.49999C12.4998 9.30112 12.4209 9.11039 12.2803 8.96974L8.53025 5.21974C8.3896 5.07914 8.19887 5.00015 8 5.00015C7.80113 5.00015 7.6104 5.07914 7.46975 5.21974Z" fill="black"/>
</g>
</svg>
