<svg width="20" height="20" viewBox="0 0 20 20" fill="none" xmlns="http://www.w3.org/2000/svg">
<g id="Component 1">
<path id="Vector" d="M15.835 6.78004C15.0568 6.78249 14.298 6.53734 13.6683 6.08004C12.9694 5.57531 12.4834 4.82849 12.305 3.98504C12.2604 3.77064 12.2369 3.55237 12.235 3.33337H9.91001V9.47504L9.90751 12.8392C9.90751 13.7384 9.30001 14.5 8.46251 14.7692C8.17504 14.8616 7.87142 14.8927 7.57118 14.8607C7.27094 14.8287 6.98072 14.7342 6.71918 14.5834C6.41377 14.4113 6.15843 14.1627 5.97827 13.862C5.79811 13.5613 5.69934 13.2188 5.69168 12.8684C5.67501 11.7317 6.62501 10.8034 7.80001 10.8034C8.03084 10.8034 8.25334 10.8409 8.46251 10.905V8.62754C8.2401 8.59504 8.01561 8.57888 7.79084 8.57921C6.50501 8.57921 5.30168 9.09587 4.44084 10.0275C3.79402 10.7251 3.40605 11.6234 3.34168 12.5725C3.26418 13.8084 3.73168 14.985 4.63918 15.8517C4.77251 15.9784 4.91251 16.0967 5.06001 16.2075C5.84994 16.7925 6.80792 17.1062 7.79084 17.1017C8.01668 17.1017 8.24251 17.085 8.46251 17.0525C9.39448 16.9214 10.262 16.5018 10.9433 15.8525C11.3528 15.468 11.6797 15.0042 11.9042 14.4893C12.1287 13.9744 12.2461 13.4192 12.2492 12.8575L12.2375 7.83254C13.2802 8.60398 14.5438 9.01866 15.8408 9.01504V6.77754C15.8433 6.78004 15.835 6.78004 15.835 6.78004Z" fill="black"/>
</g>
</svg>
