<svg width="20" height="20" viewBox="0 0 20 20" fill="none" xmlns="http://www.w3.org/2000/svg">
<g id="Component 1">
<path id="Vector" fill-rule="evenodd" clip-rule="evenodd" d="M17.1467 6.44837C17.2583 6.10171 17.1467 5.84837 16.655 5.84837H15.0183C14.605 5.84837 14.415 6.07004 14.3033 6.30671C14.3033 6.30671 13.4617 8.32504 12.2858 9.63421C11.905 10.0125 11.73 10.1392 11.5233 10.1392C11.4125 10.1392 11.2692 10.0125 11.2692 9.66587V6.43254C11.2692 6.02254 11.1425 5.83337 10.7925 5.83337H8.21917C7.965 5.83337 7.80583 6.02254 7.80583 6.21171C7.80583 6.60587 8.39333 6.70087 8.4575 7.80504V10.2025C8.4575 10.7225 8.36167 10.8175 8.15583 10.8175C7.59917 10.8175 6.24917 8.78254 5.43917 6.46421C5.28083 6.00671 5.12083 5.83337 4.70833 5.83337H3.05583C2.57917 5.83337 2.5 6.05421 2.5 6.29087C2.5 6.71587 3.05583 8.86171 5.08917 11.7C6.43917 13.64 8.36167 14.6809 10.0933 14.6809C11.1417 14.6809 11.2692 14.445 11.2692 14.05V12.5834C11.2692 12.1109 11.3642 12.0317 11.6983 12.0317C11.9367 12.0317 12.365 12.1575 13.3342 13.0884C14.4467 14.1925 14.6367 14.6967 15.2567 14.6967H16.8925C17.3692 14.6967 17.5925 14.46 17.465 14.0034C17.3217 13.545 16.7817 12.8834 16.0825 12.095C15.7017 11.6534 15.1292 11.1642 14.955 10.9284C14.7167 10.6117 14.78 10.4867 14.955 10.2017C14.9383 10.2017 16.9408 7.39504 17.1467 6.44837Z" fill="black"/>
</g>
</svg>
