<svg width="20" height="20" viewBox="0 0 20 20" fill="none" xmlns="http://www.w3.org/2000/svg">
<g id="Component 1">
<path id="Vector" d="M15.8692 5.32167C16.1856 5.40751 16.4741 5.57466 16.706 5.80652C16.9378 6.03838 17.105 6.32687 17.1908 6.64333C17.5125 7.8175 17.4992 10.2633 17.4992 10.2633C17.4992 10.2633 17.4992 12.6975 17.1908 13.8717C17.105 14.1881 16.9378 14.4766 16.706 14.7085C16.4741 14.9403 16.1856 15.1075 15.8692 15.1933C14.695 15.5017 10 15.5017 10 15.5017C10 15.5017 5.31667 15.5017 4.13083 15.1808C3.81437 15.095 3.52588 14.9278 3.29402 14.696C3.06216 14.4641 2.89501 14.1756 2.80917 13.8592C2.5 12.6975 2.5 10.25 2.5 10.25C2.5 10.25 2.5 7.81667 2.80833 6.6425C2.89587 6.32538 3.0635 6.0361 3.2951 5.80246C3.5267 5.56881 3.81449 5.39865 4.13083 5.30833C5.305 5 10 5 10 5C10 5 14.695 5 15.8692 5.32167ZM8.505 8.00333V12.5L12.4092 10.2508L8.505 8.0025V8.00333Z" fill="black"/>
</g>
</svg>
